HIERARCHY
ROOT Hips
{
  OFFSET 3.13124 94.3669 -3.18751
  CHANNELS  6 Xposition Yposition Zposition Zrotation Xrotation Yrotation
  JOINT LeftUpLeg
  {
    OFFSET 8.64259 1.95398 -2.38835
    CHANNELS 3 Zrotation Xrotation Yrotation
    JOINT LeftLeg
    {
      OFFSET 43.7702 0 0
      CHANNELS 3 Zrotation Xrotation Yrotation
      JOINT LeftFoot
      {
        OFFSET 40.6238 0 0
        CHANNELS 3 Zrotation Xrotation Yrotation
        JOINT LeftToeBase
        {
          OFFSET 12.7242 0 0
          CHANNELS 3 Zrotation Xrotation Yrotation
          End Site
          {
            OFFSET 0 0 0
          }
        }
      }
    }
  }
  JOINT RightUpLeg
  {
    OFFSET -8.2249 1.95398 -2.59336
    CHANNELS 3 Zrotation Xrotation Yrotation
    JOINT RightLeg
    {
      OFFSET 43.5653 0 0
      CHANNELS 3 Zrotation Xrotation Yrotation
      JOINT RightFoot
      {
        OFFSET 40.6238 0 0
        CHANNELS 3 Zrotation Xrotation Yrotation
        JOINT RightToeBase
        {
          OFFSET 12.7242 0 0
          CHANNELS 3 Zrotation Xrotation Yrotation
          End Site
          {
            OFFSET 0 0 0
          }
        }
      }
    }
  }
  JOINT Spine
  {
    OFFSET 0.165834 0.87714 6.61349
    CHANNELS 3 Zrotation Xrotation Yrotation
    JOINT Spine1
    {
      OFFSET 7.38962 1.71661e-005 0
      CHANNELS 3 Zrotation Xrotation Yrotation
      JOINT Spine2
      {
        OFFSET 11.9445 1.14441e-005 0
        CHANNELS 3 Zrotation Xrotation Yrotation
        JOINT Spine3
        {
          OFFSET 14.7254 4.19617e-005 0
          CHANNELS 3 Zrotation Xrotation Yrotation
          JOINT Spine4
          {
            OFFSET 10.9679 0 0
            CHANNELS 3 Zrotation Xrotation Yrotation
            JOINT RightShoulder
            {
              OFFSET 2.46616 -1.6653 3.69651
              CHANNELS 3 Zrotation Xrotation Yrotation
              JOINT RightArm
              {
                OFFSET 13.0012 0 0
                CHANNELS 3 Zrotation Xrotation Yrotation
                JOINT RightForeArm
                {
                  OFFSET 28.7848 1.52588e-005 0
                  CHANNELS 3 Zrotation Xrotation Yrotation
                  JOINT RightHand
                  {
                    OFFSET 26.5688 1.52588e-005 0
                    CHANNELS 3 Zrotation Xrotation Yrotation
                    End Site
                    {
                      OFFSET 0 0 0
                    }
                  }
                }
              }
            }
            JOINT LeftShoulder
            {
              OFFSET 2.38034 -1.29275 -3.75231
              CHANNELS 3 Zrotation Xrotation Yrotation
              JOINT LeftArm
              {
                OFFSET 16.3182 6.10352e-005 0
                CHANNELS 3 Zrotation Xrotation Yrotation
                JOINT LeftForeArm
                {
                  OFFSET 27.0901 0 0
                  CHANNELS 3 Zrotation Xrotation Yrotation
                  JOINT LeftHand
                  {
                    OFFSET 24.5451 1.52588e-005 0
                    CHANNELS 3 Zrotation Xrotation Yrotation
                    End Site
                    {
                      OFFSET 0 0 0
                    }
                  }
                }
              }
            }
            JOINT Neck
            {
              OFFSET 5.0226 -0.0266342 0
              CHANNELS 3 Zrotation Xrotation Yrotation
              JOINT Head
              {
                OFFSET 6.69363 2.86102e-005 0
                CHANNELS 3 Zrotation Xrotation Yrotation
                End Site
                {
                  OFFSET 0 0 0
                }
              }
            }
          }
        }
      }
    }
  }
}
MOTION
Frames:	9
Frame Time:	0.0333333
-16.1916 99.3384 -13.3743 76.3117 -15.0084 92.2344 177.042 21.7086 83.1283 -8.07899 -36.2541 -2.70853 31.8653 25.2885 24.8764 28.7808 3.5309e-006 -7.10152e-006 177.32 -17.8249 84.2732 -6.33235 25.6871 1.66538 33.1097 12.3874 13.3192 28.7808 1.59635e-005 1.60699e-005 2.89616 6.90075 -92.1706 13.1499 4.67868 -4.75788 1.47787 4.46492 -4.95891 -21.0895 5.89141 -3.13109 -1.0769 5.89143 -3.13112 95.3812 -4.44331 -105.466 -2.02468 34.9348 -49.206 -3.85269 -13.9289 -4.90521 -17.6752 0.501565 -8.62235 -80.8918 -27.9895 90.7743 4.95882 -27.4531 -20.3852 1.99788 -15.6944 -3.00653 35.1746 -0.0142752 -4.14052 68.8698 -7.77655 11.7388 -41.9854 -10.3209 -16.2398 
-17.7038 97.8391 -13.7263 79.5601 -13.8627 92.127 177.091 22.654 81.0513 -14.5666 -38.604 -2.96805 37.4642 27.1896 24.5813 28.7808 3.5309e-006 -7.10152e-006 -179.804 -11.0496 88.7095 -16.3646 29.9233 2.03902 41.8935 16.1404 14.4243 28.7808 1.59635e-005 1.60699e-005 2.82275 7.15803 -92.2893 12.6121 4.5277 -4.5948 0.940305 4.32308 -4.78934 -21.6254 5.69784 -3.02117 -1.61279 5.69785 -3.02119 94.3541 -5.56727 -108.18 1.35263 32.128 -48.9674 -4.06967 -18.9433 -4.93986 -29.804 0.200877 -5.97185 -82.2399 -29.8627 88.3038 3.24505 -26.6406 -20.5421 1.98568 -16.516 -2.99278 38.3226 -1.2189 -7.41184 60.3242 -8.30189 13.8361 -45.2958 -8.97219 -21.2812 
-19.4196 96.8014 -14.3287 82.1104 -13.6787 91.1729 176.882 22.7659 79.0381 -17.102 -40.3643 -3.17099 38.8079 28.1783 24.9802 28.7808 3.5309e-006 -7.10152e-006 -178.582 -4.49084 91.5956 -25.8016 31.4601 2.13946 46.4674 19.8548 16.1499 28.7808 1.59635e-005 1.60699e-005 2.75375 7.37819 -92.0236 12.1817 4.50469 -4.26767 0.510845 4.3126 -4.46161 -22.0601 5.57842 -2.71557 -2.0474 5.57843 -2.71559 92.957 -8.16425 -110.704 3.78126 30.1334 -48.9368 -4.24432 -22.8129 -4.98124 -30.5695 0.393393 -6.65746 -82.9885 -30.8844 86.9793 1.74184 -25.2531 -17.314 2.09939 -9.2294 -3.11907 36.9104 -0.888022 -6.6012 50.3647 -10.1719 13.229 -45.7847 -8.0737 -23.7292 
-21.3375 96.6113 -15.1521 84.2359 -13.9963 90.4571 177.523 24.6409 77.8164 -21.9552 -38.7955 -2.9095 37.5767 25.2641 22.7003 28.7808 3.5309e-006 -7.10152e-006 -178.008 0.37577 94.4238 -30.9974 27.4029 1.70621 47.8514 21.0384 16.6443 28.7808 1.59635e-005 1.60699e-005 2.70109 7.57141 -91.912 11.7925 4.4692 -4.06555 0.12237 4.28768 -4.25842 -22.4512 5.48175 -2.53158 -2.43855 5.48179 -2.53161 90.91 -11.8785 -113.915 5.59017 28.5175 -48.3306 -4.31292 -24.2856 -5.00052 -33.3513 1.14432 -9.07498 -82.8872 -33.2363 87.5331 0.190684 -23.9231 -13.9613 2.1473 -6.38135 -3.17124 36.0444 -1.71518 -9.02638 40.9937 -11.9923 11.5449 -44.9573 -7.67762 -24.8541 
-23.9445 96.8483 -16.1252 87.5286 -13.795 90.2353 178.768 27.1642 77.0912 -28.0509 -36.0125 -2.47835 30.7199 20.4462 20.2329 28.7808 3.5309e-006 -7.10152e-006 -177.983 4.19997 97.4832 -36.1691 25.0186 1.44349 43.8658 19.1094 16.4729 28.7808 1.59635e-005 1.60699e-005 2.64787 7.99366 -92.0103 10.9484 4.28239 -4.16734 -0.722805 4.09502 -4.3516 -23.2883 5.33791 -2.68687 -3.27566 5.33793 -2.68689 88.671 -14.4431 -117.915 6.79674 27.1588 -46.2395 -4.30644 -24.1475 -4.99861 -39.4024 2.02185 -10.9008 -83.2741 -36.836 87.297 -1.3068 -22.5446 -9.48177 2.14474 -6.52556 -3.16848 35.7239 -1.21251 -7.61869 32.9746 -12.8085 12.7002 -42.1209 -7.57942 -28.4893 
-26.4896 96.924 -17.2382 91.8412 -13.8314 91.2068 -179.845 30.388 77.462 -34.6032 -34.2992 -2.13728 18.198 16.2035 19.2591 28.7808 3.5309e-006 -7.10152e-006 -176.705 1.77987 100.759 -32.1515 28.7177 1.93583 43.9983 8.20808 7.35999 28.7808 1.59635e-005 1.60699e-005 2.74125 8.53081 -92.5586 9.84112 4.24543 -4.50696 -1.83138 4.04318 -4.68927 -24.3888 5.41278 -3.02224 -4.37619 5.41276 -3.02227 85.517 -17.4198 -123.267 6.63452 26.4829 -41.5896 -4.35737 -25.2238 -5.01406 -46.2685 3.59124 -13.6679 -85.0212 -38.8276 84.5432 -4.81815 -20.5286 -4.37747 2.04913 -12.3486 -3.0637 36.523 -0.956099 -6.82913 24.5075 -13.9368 13.2168 -37.2217 -8.46592 -31.0995 
-28.5324 96.317 -18.9683 94.5703 -15.3814 90.1891 -179.196 32.6963 76.3181 -35.9631 -30.7806 -1.7726 13.1489 14.2843 18.1091 28.7808 3.5309e-006 -7.10152e-006 -176.685 -0.242263 99.5229 -30.5897 31.7874 2.29501 47.1284 4.00131 3.5756 28.7808 1.59635e-005 1.60699e-005 2.97429 8.90383 -92.6017 9.07359 4.63396 -4.35837 -2.59718 4.43781 -4.55671 -25.1702 5.72892 -2.76745 -5.15749 5.72892 -2.76747 82.9226 -21.4648 -125.966 8.9855 24.447 -39.38 -4.2923 -23.8456 -4.99442 -50.3162 6.28571 -18.6614 -84.9639 -40.2853 84.8938 -8.40344 -19.0421 -1.44247 2.00754 -15.0479 -3.01733 35.7716 -0.929347 -6.79337 16.8487 -15.268 10.6947 -32.5343 -9.9531 -30.146 
-30.3686 95.2886 -21.4048 95.3355 -18.1815 87.6146 177.623 30.2819 76.4009 -19.528 -39.8386 -3.06629 23.5681 14.7979 15.7628 28.7808 3.5309e-006 -7.10152e-006 -178.131 0.963843 95.8507 -34.5189 30.9745 1.94413 54.4725 2.40209 1.90814 28.7808 1.59635e-005 1.60699e-005 3.14672 9.0571 -92.1838 8.8456 5.26852 -4.55796 -2.82346 5.06292 -4.78527 -25.418 6.39323 -2.75117 -5.40532 6.39324 -2.7512 82.7649 -21.5331 -126.244 15.4646 19.6574 -37.3263 -4.17755 -21.3535 -4.96387 -54.5512 7.26582 -19.3593 -84.646 -44.4318 86.04 -10.1991 -18.3114 0.870049 1.96499 -17.9457 -2.96939 35.1385 -0.955505 -6.91384 13.9211 -14.3287 19.567 -33.6537 -9.10542 -35.7346 
-31.8194 93.2514 -23.3221 94.7774 -22.2533 88.4631 176.456 30.851 81.586 -5.98831 -38.8157 -3.00476 16.5106 9.08702 10.2138 28.7808 3.5309e-006 -7.10152e-006 -179.047 3.03418 94.7697 -38.9822 19.5441 0.991402 66.6474 5.11318 2.68087 28.7808 1.59635e-005 1.60699e-005 3.49956 8.94401 -92.5223 9.07162 5.66257 -5.13785 -2.59811 5.43292 -5.38229 -25.194 6.95231 -3.19308 -5.18134 6.95231 -3.19307 80.463 -24.5292 -128.781 19.9305 16.5006 -35.4271 -4.26828 -23.33 -4.98765 -43.4087 4.53127 -16.7897 -81.1705 -46.3322 91.7913 -12.6426 -17.3696 5.19202 1.96906 -17.6581 -2.97401 34.9623 0.0508053 -3.96912 11.1359 -13.4781 22.3569 -33.2134 -8.79978 -35.2139 
